<svg aria-hidden="true" style="position: absolute; width: 0; height: 0; overflow: hidden;" version="1.1" xmlns="http://www.w3.org/2000/svg" xmlns:xlink="http://www.w3.org/1999/xlink">
<defs>
<symbol id="icon-close" viewBox="0 0 32 32">
<path d="M1.333 16c0 8.1 6.567 14.667 14.667 14.667s14.667-6.567 14.667-14.667c0-8.1-6.567-14.667-14.667-14.667s-14.667 6.566-14.667 14.667zM28 16c0 6.627-5.373 12-12 12s-12-5.373-12-12c0-6.627 5.373-12 12-12s12 5.373 12 12zM11.61 22.276l4.39-4.391 4.39 4.391 1.886-1.886-4.391-4.391 4.391-4.391-1.886-1.886-4.39 4.391-4.39-4.391-1.886 1.886 4.391 4.391-4.391 4.391 1.886 1.886z"></path>
</symbol>
<symbol id="icon-vitejs" viewBox="0 0 32 32">
<path d="M31.541 4.884l-14.757 26.389c-0.305 0.545-1.088 0.548-1.397 0.006l-15.050-26.392c-0.337-0.591 0.168-1.306 0.838-1.187l14.773 2.64c0.042 0.008 0.091 0.013 0.141 0.013s0.101-0.005 0.149-0.014l-0.005 0.001 14.464-2.636c0.667-0.122 1.175 0.589 0.844 1.181z"></path>
<path d="M22.985 0.237l-10.921 2.14c-0.178 0.036-0.312 0.186-0.323 0.369l-0 0.001-0.672 11.346c-0 0.007-0.001 0.015-0.001 0.024 0 0.222 0.18 0.401 0.401 0.401 0.032 0 0.063-0.004 0.093-0.011l-0.003 0.001 3.041-0.702c0.284-0.066 0.542 0.185 0.483 0.471l-0.903 4.424c-0.061 0.298 0.219 0.552 0.509 0.464l1.878-0.57c0.291-0.088 0.571 0.167 0.509 0.465l-1.436 6.948c-0.090 0.435 0.488 0.672 0.729 0.299l0.161-0.249 8.899-17.759c0.149-0.297-0.108-0.636-0.434-0.573l-3.13 0.604c-0.294 0.057-0.544-0.217-0.461-0.505l2.043-7.081c0.083-0.288-0.168-0.562-0.463-0.505z"></path>
</symbol>
</defs>
</svg>
